<svg width="20" height="20" viewBox="0 0 20 20" fill="none" xmlns="http://www.w3.org/2000/svg">
<path d="M9.65515 17.069C9.55682 17.0695 9.45935 17.0507 9.36832 17.0135C9.27729 16.9763 9.1945 16.9215 9.12469 16.8523L3.31952 11.0397C2.59134 10.3039 2.18288 9.31048 2.18288 8.27528C2.18288 7.24009 2.59134 6.2467 3.31952 5.51092C4.05339 4.77911 5.04749 4.36816 6.08388 4.36816C7.12027 4.36816 8.11438 4.77911 8.84825 5.51092L9.65515 6.31781L10.462 5.51092C11.1959 4.77911 12.19 4.36816 13.2264 4.36816C14.2628 4.36816 15.2569 4.77911 15.9908 5.51092C16.719 6.2467 17.1274 7.24009 17.1274 8.27528C17.1274 9.31048 16.719 10.3039 15.9908 11.0397L10.1856 16.8523C10.1158 16.9215 10.033 16.9763 9.94197 17.0135C9.85095 17.0507 9.75347 17.0695 9.65515 17.069ZM6.08388 5.86206C5.76761 5.86063 5.45419 5.92197 5.16179 6.04252C4.86938 6.16307 4.6038 6.34045 4.38043 6.56436C3.92922 7.01796 3.67592 7.63174 3.67592 8.27155C3.67592 8.91135 3.92922 9.52514 4.38043 9.97873L9.65515 15.2609L14.9299 9.97873C15.3811 9.52514 15.6344 8.91135 15.6344 8.27155C15.6344 7.63174 15.3811 7.01796 14.9299 6.56436C14.4694 6.12932 13.8599 5.88694 13.2264 5.88694C12.5929 5.88694 11.9834 6.12932 11.523 6.56436L10.1856 7.90919C10.1162 7.97922 10.0335 8.0348 9.94248 8.07273C9.85143 8.11066 9.75378 8.13019 9.65515 8.13019C9.55652 8.13019 9.45886 8.11066 9.36782 8.07273C9.27678 8.0348 9.19414 7.97922 9.12469 7.90919L7.78733 6.56436C7.56396 6.34045 7.29838 6.16307 7.00598 6.04252C6.71358 5.92197 6.40016 5.86063 6.08388 5.86206V5.86206Z" fill="white"/>
</svg>
